<svg width="840" height="838" viewBox="0 0 840 838" fill="none" xmlns="http://www.w3.org/2000/svg">
<g clip-path="url(#clip0_508_3834)">
<path fill-rule="evenodd" clip-rule="evenodd" d="M-0.000225134 60.6955C0.70756 59.4821 4.22964 48.0396 4.3476 46.8599C5.05539 39.9337 5.64521 32.9738 6.55522 26.0645C7.36412 19.8967 16.8855 10.7629 23.1376 10.8471C36.653 10.9988 49.8987 6.9206 63.4646 8.55524C68.2505 9.12821 73.1039 7.54412 77.9067 10.4764C80.2829 11.9257 84.6476 11.6897 87.4619 10.5775C103.893 4.08945 120.981 6.88689 137.799 6.54985C142.248 6.46559 146.141 10.3921 151.398 6.70152C154.651 4.42649 160.482 8.04968 164.408 4.24112C164.594 4.05575 165.116 4.24112 165.47 4.20742C175.295 3.48278 185.119 2.40425 194.961 2.20202C199.696 2.10091 204.466 3.63445 210.077 4.56131C211.56 6.26337 213.583 8.5721 215.52 10.7797C214.644 11.8751 214.273 12.802 213.802 12.8525C168.604 17.352 123.256 13.9985 77.991 15.1612C71.4019 15.3298 64.8633 16.8296 58.2741 17.1835C51.4153 17.5374 44.5229 16.9813 37.6641 17.3857C34.3611 17.5879 31.1423 19.1046 25.8845 20.5876C18.5202 26.6206 15.234 36.597 12.7231 47.652C9.57173 61.5212 11.3918 75.323 10.9199 89.1417C10.4817 101.764 10.8188 114.42 10.8188 127.8C9.08302 127.918 7.39782 128.019 5.76317 128.12C2.08943 122.576 1.98832 116.442 2.08943 110.19C2.2411 100.786 2.15684 91.383 2.08943 81.9796C2.08943 80.4123 2.93203 78.1205 -0.0507812 78.0868V60.7123L-0.000225134 60.6955Z" fill="#E60012"/>
<path fill-rule="evenodd" clip-rule="evenodd" d="M57.4316 371.765C55.9318 372.607 53.9938 374.141 51.7862 374.832C49.4943 375.54 46.4441 376.45 44.6409 375.506C39.8213 373.012 35.406 369.692 31.0076 366.456C25.8509 362.648 23.9635 356.783 24.0814 350.969C24.3005 341.364 20.1044 332.213 21.7222 322.557C17.5934 312.968 20.4414 302.874 19.4977 293.066C19.1101 288.988 17.8293 285.011 17.4586 280.932C17.1047 276.989 16.9699 272.928 17.4586 269.001C18.3855 261.603 18.9921 254.003 24.4353 248.037C27.2496 244.953 26.4407 241.954 24.7218 238.398C21.6042 231.943 18.8405 225.321 19.3966 217.737C19.582 215.209 17.6777 212.597 17.4586 209.952C16.9025 203.312 17.526 196.807 20.8459 190.774C22.4637 187.842 23.7613 184.724 25.4296 181.168C24.014 176.129 18.6214 171.748 19.582 165.243C20.492 159.042 17.1384 152.385 21.6042 146.537C21.9581 146.082 21.7053 145.139 21.7053 144.431C21.7053 131.404 23.4916 118.057 21.2335 105.435C18.6719 91.0941 20.1886 77.0058 19.6831 62.8164C19.3292 52.7557 23.8455 43.5377 29.0697 35.3644C31.766 31.1514 37.6305 28.9438 43.2085 28.0843C47.2699 27.4608 51.2806 26.3823 55.342 26.0115C59.2854 25.6577 63.313 26.2138 67.2732 25.843C70.9975 25.506 75.1094 25.3038 78.2102 23.5511C82.6254 21.057 87.0407 21.63 91.5402 21.6132C104.921 21.5289 118.318 21.3772 131.699 21.6469C143.428 21.8828 154.803 18.4281 166.633 19.237C178.16 20.0291 189.804 18.9 201.348 19.5404C214.796 20.2819 228.176 22.54 241.709 21.5289C244.742 21.3098 247.59 21.4278 250.842 19.9785C255.477 17.9057 261.982 18.1753 265.773 21.7648C272.127 27.7979 279.204 28.7921 287.041 27.9158C292.534 24.4443 297.994 21.0065 303.994 17.2148C308.696 17.2148 314.172 16.7766 319.548 17.3159C331.277 18.4618 343.023 19.7426 354.634 21.7311C359.943 22.6411 364.442 26.871 366.683 31.3368C369.97 37.8417 372.615 44.6836 373.947 52.267C376.576 67.2148 375.497 82.112 375.75 97.0092C376.003 112.21 375.649 127.41 375.885 142.611C375.969 147.768 374.199 153.295 377.957 158.014C378.126 158.233 378.092 158.772 377.957 159.075C374.84 166.153 376.811 173.77 375.615 180.949C373.256 195.223 372.834 195.964 375.767 209.581C375.986 210.626 375.901 211.755 375.767 212.816C374.166 227.124 378.21 241.111 378.008 255.351C377.789 269.456 377.974 283.578 377.957 297.683C377.957 308.283 374.233 318.647 375.783 329.348C372.042 336.342 373.879 343.925 373.677 351.239C373.306 364.518 366.077 372.405 353.05 373.551C348.618 373.939 344.253 375.27 339.821 375.573C335.659 375.86 331.547 375.557 327.637 377.714C326.255 378.489 324.081 377.832 322.278 377.832C312.875 377.832 303.455 377.596 294.051 377.882C267.88 378.64 241.877 374.023 215.706 375.624C209.791 375.995 203.994 375.792 198.079 377.612C192.551 379.331 186.046 376.096 180.586 380.022C171.503 378.927 162.454 380.932 153.101 378.405C145.012 376.231 135.726 376.82 127.25 378.084C113.043 380.208 104.129 380.359 89.8887 378.084C84.4623 377.225 78.8506 377.141 73.4579 375.691C68.6045 374.377 63.6837 373.265 57.3979 371.731L57.4316 371.765Z" fill="#E60012"/>
<path fill-rule="evenodd" clip-rule="evenodd" d="M382.693 5.04973C385.659 8.97625 389.72 13.7959 393.124 19.0369C396.427 24.1262 397.826 30.3615 399.225 35.9564C400.657 41.6692 399.832 48.3258 398.5 54.7969C396.714 63.3915 397.877 72.5927 397.776 81.5411C401.095 83.951 399.629 87.4899 399.646 90.5064C399.764 112.583 399.832 134.676 399.613 156.769C399.562 161.184 398.298 165.582 397.523 169.981C396.748 174.396 399.41 179.199 395.635 183.378C394.725 184.389 394.692 187.288 395.484 188.552C398.955 194.214 396.343 200.466 397.658 206.162C401.888 224.615 398.854 243.253 399.579 261.774C399.781 266.863 397.995 272.02 397.624 277.16C397.27 282.198 396.647 287.49 397.708 292.326C401.551 309.701 398.837 327.244 399.714 344.686C400.202 354.258 396.208 363.425 397.354 373.132C397.641 375.508 395.703 378.154 394.237 382.198C390.041 386.984 384.446 392.68 375.919 394.012C373.542 394.382 371.183 395.124 368.807 395.141C356.134 395.259 343.462 395.259 330.789 395.141C328.076 395.124 325.11 396.202 322.767 393.405C322.144 392.663 319.565 392.478 318.74 393.118C313.549 397.23 307.499 393.793 302.225 395.326C296.394 397.028 290.597 397.517 284.614 397.382C278.817 397.247 273.003 397.736 267.24 397.23C262.471 396.809 257.954 394.837 252.916 395.006C248.534 395.141 244.152 395.95 239.484 393.422C236.653 391.888 231.075 393.506 227.722 395.427C223.913 397.601 220.273 397.534 216.532 397.247C212.1 396.893 207.651 398.646 203.084 395.579C199.596 393.236 194.506 396.304 189.838 393.439C187.091 391.753 181.817 392.192 177.621 394.399C173.071 396.792 167.088 393.573 162.572 397.365C146.225 398.275 129.946 400.752 113.515 399.472C109.791 399.185 106.151 398.039 102.461 397.382C99.107 396.792 95.2141 398.798 92.4504 395.326C80.1653 395.276 67.8633 395.242 55.5781 395.191C52.5111 399.017 48.2644 397.112 44.5232 397.315C29.3227 398.14 16.7848 392.478 6.8252 381.322V252.101C8.0891 252.033 9.08337 251.983 9.99338 251.932C10.3304 252.724 10.836 253.331 10.836 253.954C10.8697 284.002 10.8697 314.049 10.8697 344.113C10.8697 348.275 11.2236 352.219 12.7234 356.364C13.9368 359.701 13.8188 363.644 15.0658 367.352C19.3126 379.94 27.4184 386.496 40.0911 386.529C63.2627 386.58 86.6027 388.248 109.572 386.108C139.4 383.344 169.11 384.996 198.871 384.473C228.918 383.951 258.965 384.355 289.029 384.355H379.795C384.008 376.873 387.53 369.222 389.181 360.139C392.838 340.119 389.906 320.115 391.052 300.163C386.451 279.232 389.889 258.033 388.928 236.984C388.524 228.171 392.922 219.61 391.001 210.746C387.395 194.113 390.445 177.193 388.49 160.628C387.462 151.831 388.237 142.832 386.434 134.389C383.148 119.071 385.103 103.786 384.648 88.5179C384.193 72.9634 384.294 57.3753 384.682 41.8209C384.816 36.344 386.485 30.9176 387.361 25.98C379.963 16.1889 370.661 12.8691 359.589 12.768C354.449 12.7174 349.343 11.1502 344.186 10.7963C339.147 10.4424 333.822 9.75145 329.036 10.8974C315.605 14.1498 302.09 12.5489 288.608 12.8185C275.211 13.0882 261.813 12.8859 248.416 12.8859H243.967C242.838 11.1165 241.759 9.41441 240.698 7.7292C246.411 5.95974 251.517 4.27453 256.69 2.82526C258.679 2.26914 260.802 2.05007 262.875 2.05007C296.192 1.99951 329.491 1.88155 362.808 2.15118C368.992 2.20173 375.143 3.90379 382.693 5.04973Z" fill="#E60012"/>
<path d="M140.172 275.327L214.476 146.592L212.172 144.288H170.7C165.228 144.288 159.996 143.856 155.004 142.992C150.012 142.128 145.932 140.304 142.764 137.52C139.692 134.736 138.156 130.56 138.156 124.992C138.156 118.56 139.692 113.808 142.764 110.736C145.836 107.664 149.82 105.648 154.716 104.688C159.708 103.632 165.036 103.104 170.7 103.104H246.444C253.26 103.104 258.732 105.36 262.86 109.872C267.084 114.288 269.196 119.328 269.196 124.992C269.196 127.968 268.62 130.56 267.468 132.768L193.452 261.503L195.468 263.519H236.94C242.508 263.519 247.74 263.999 252.636 264.959C257.628 265.823 261.66 267.743 264.732 270.719C267.9 273.599 269.484 278.015 269.484 283.967C269.484 290.015 267.9 294.527 264.732 297.503C261.66 300.479 257.628 302.447 252.636 303.407C247.74 304.271 242.508 304.703 236.94 304.703H161.196C154.38 304.703 148.812 302.639 144.492 298.511C140.268 294.383 138.156 289.535 138.156 283.967C138.156 282.239 138.252 280.751 138.444 279.503C138.732 278.159 139.308 276.767 140.172 275.327Z" fill="white"/>
</g>
<g clip-path="url(#clip1_508_3834)">
<path fill-rule="evenodd" clip-rule="evenodd" d="M-0.000225134 498.695C0.70756 497.482 4.22964 486.04 4.3476 484.86C5.05539 477.934 5.64521 470.974 6.55522 464.065C7.36412 457.897 16.8855 448.763 23.1376 448.847C36.653 448.999 49.8987 444.921 63.4646 446.555C68.2505 447.128 73.1039 445.544 77.9067 448.476C80.2829 449.926 84.6476 449.69 87.4619 448.577C103.893 442.089 120.981 444.887 137.799 444.55C142.248 444.466 146.141 448.392 151.398 444.702C154.651 442.426 160.482 446.05 164.408 442.241C164.594 442.056 165.116 442.241 165.47 442.207C175.295 441.483 185.119 440.404 194.961 440.202C199.696 440.101 204.466 441.634 210.077 442.561C211.56 444.263 213.583 446.572 215.52 448.78C214.644 449.875 214.273 450.802 213.802 450.853C168.604 455.352 123.256 451.998 77.991 453.161C71.4019 453.33 64.8633 454.83 58.2741 455.183C51.4153 455.537 44.5229 454.981 37.6641 455.386C34.3611 455.588 31.1423 457.105 25.8845 458.588C18.5202 464.621 15.234 474.597 12.7231 485.652C9.57173 499.521 11.3918 513.323 10.9199 527.142C10.4817 539.764 10.8188 552.42 10.8188 565.8C9.08302 565.918 7.39782 566.019 5.76317 566.12C2.08943 560.576 1.98832 554.442 2.08943 548.19C2.2411 538.786 2.15684 529.383 2.08943 519.98C2.08943 518.412 2.93203 516.12 -0.0507812 516.087V498.712L-0.000225134 498.695Z" fill="#E60012"/>
<path fill-rule="evenodd" clip-rule="evenodd" d="M57.4316 809.765C55.9318 810.607 53.9938 812.141 51.7862 812.832C49.4943 813.54 46.4441 814.45 44.6409 813.506C39.8213 811.012 35.406 807.692 31.0076 804.456C25.8509 800.648 23.9635 794.783 24.0814 788.969C24.3005 779.364 20.1044 770.213 21.7222 760.557C17.5934 750.968 20.4414 740.874 19.4977 731.066C19.1101 726.988 17.8293 723.011 17.4586 718.932C17.1047 714.989 16.9699 710.928 17.4586 707.001C18.3855 699.603 18.9921 692.003 24.4353 686.037C27.2496 682.953 26.4407 679.954 24.7218 676.398C21.6042 669.943 18.8405 663.321 19.3966 655.737C19.582 653.209 17.6777 650.597 17.4586 647.952C16.9025 641.312 17.526 634.807 20.8459 628.774C22.4637 625.842 23.7613 622.724 25.4296 619.168C24.014 614.129 18.6214 609.748 19.582 603.243C20.492 597.042 17.1384 590.385 21.6042 584.537C21.9581 584.082 21.7053 583.139 21.7053 582.431C21.7053 569.404 23.4916 556.057 21.2335 543.435C18.6719 529.094 20.1886 515.006 19.6831 500.816C19.3292 490.756 23.8455 481.538 29.0697 473.364C31.766 469.151 37.6305 466.944 43.2085 466.084C47.2699 465.461 51.2806 464.382 55.342 464.012C59.2854 463.658 63.313 464.214 67.2732 463.843C70.9975 463.506 75.1094 463.304 78.2102 461.551C82.6254 459.057 87.0407 459.63 91.5402 459.613C104.921 459.529 118.318 459.377 131.699 459.647C143.428 459.883 154.803 456.428 166.633 457.237C178.16 458.029 189.804 456.9 201.348 457.54C214.796 458.282 228.176 460.54 241.709 459.529C244.742 459.31 247.59 459.428 250.842 457.979C255.477 455.906 261.982 456.175 265.773 459.765C272.127 465.798 279.204 466.792 287.041 465.916C292.534 462.444 297.994 459.006 303.994 455.215C308.696 455.215 314.172 454.777 319.548 455.316C331.277 456.462 343.023 457.743 354.634 459.731C359.943 460.641 364.442 464.871 366.683 469.337C369.97 475.842 372.615 482.684 373.947 490.267C376.576 505.215 375.497 520.112 375.75 535.009C376.003 550.21 375.649 565.41 375.885 580.611C375.969 585.768 374.199 591.295 377.957 596.014C378.126 596.233 378.092 596.772 377.957 597.075C374.84 604.153 376.811 611.77 375.615 618.949C373.256 633.223 372.834 633.964 375.767 647.581C375.986 648.626 375.901 649.755 375.767 650.816C374.166 665.124 378.21 679.111 378.008 693.351C377.789 707.456 377.974 721.578 377.957 735.683C377.957 746.283 374.233 756.647 375.783 767.348C372.042 774.342 373.879 781.925 373.677 789.239C373.306 802.518 366.077 810.405 353.05 811.551C348.618 811.939 344.253 813.27 339.821 813.573C335.659 813.86 331.547 813.557 327.637 815.714C326.255 816.489 324.081 815.832 322.278 815.832C312.875 815.832 303.455 815.596 294.051 815.882C267.88 816.64 241.877 812.023 215.706 813.624C209.791 813.995 203.994 813.792 198.079 815.612C192.551 817.331 186.046 814.096 180.586 818.022C171.503 816.927 162.454 818.932 153.101 816.405C145.012 814.231 135.726 814.82 127.25 816.084C113.043 818.208 104.129 818.359 89.8887 816.084C84.4623 815.225 78.8506 815.141 73.4579 813.691C68.6045 812.377 63.6837 811.265 57.3979 809.731L57.4316 809.765Z" fill="#E60012"/>
<path fill-rule="evenodd" clip-rule="evenodd" d="M382.693 443.05C385.659 446.976 389.72 451.796 393.124 457.037C396.427 462.126 397.826 468.361 399.225 473.956C400.657 479.669 399.832 486.326 398.5 492.797C396.714 501.391 397.877 510.593 397.776 519.541C401.095 521.951 399.629 525.49 399.646 528.506C399.764 550.583 399.832 572.676 399.613 594.769C399.562 599.184 398.298 603.582 397.523 607.981C396.748 612.396 399.41 617.199 395.635 621.378C394.725 622.389 394.692 625.288 395.484 626.552C398.955 632.214 396.343 638.466 397.658 644.162C401.888 662.615 398.854 681.253 399.579 699.774C399.781 704.863 397.995 710.02 397.624 715.16C397.27 720.198 396.647 725.49 397.708 730.326C401.551 747.701 398.837 765.244 399.714 782.686C400.202 792.258 396.208 801.425 397.354 811.132C397.641 813.508 395.703 816.154 394.237 820.198C390.041 824.984 384.446 830.68 375.919 832.012C373.542 832.382 371.183 833.124 368.807 833.141C356.134 833.259 343.462 833.259 330.789 833.141C328.076 833.124 325.11 834.202 322.767 831.405C322.144 830.663 319.565 830.478 318.74 831.118C313.549 835.23 307.499 831.793 302.225 833.326C296.394 835.028 290.597 835.517 284.614 835.382C278.817 835.247 273.003 835.736 267.24 835.23C262.471 834.809 257.954 832.837 252.916 833.006C248.534 833.141 244.152 833.95 239.484 831.422C236.653 829.888 231.075 831.506 227.722 833.427C223.913 835.601 220.273 835.534 216.532 835.247C212.1 834.893 207.651 836.646 203.084 833.579C199.596 831.236 194.506 834.304 189.838 831.439C187.091 829.753 181.817 830.192 177.621 832.399C173.071 834.792 167.088 831.573 162.572 835.365C146.225 836.275 129.946 838.752 113.515 837.472C109.791 837.185 106.151 836.039 102.461 835.382C99.107 834.792 95.2141 836.798 92.4504 833.326C80.1653 833.276 67.8633 833.242 55.5781 833.191C52.5111 837.017 48.2644 835.112 44.5232 835.315C29.3227 836.14 16.7848 830.478 6.8252 819.322V690.101C8.0891 690.033 9.08337 689.983 9.99338 689.932C10.3304 690.724 10.836 691.331 10.836 691.954C10.8697 722.002 10.8697 752.049 10.8697 782.113C10.8697 786.275 11.2236 790.219 12.7234 794.364C13.9368 797.701 13.8188 801.644 15.0658 805.352C19.3126 817.94 27.4184 824.496 40.0911 824.529C63.2627 824.58 86.6027 826.248 109.572 824.108C139.4 821.344 169.11 822.996 198.871 822.473C228.918 821.951 258.965 822.355 289.029 822.355H379.795C384.008 814.873 387.53 807.222 389.181 798.139C392.838 778.119 389.906 758.115 391.052 738.163C386.451 717.232 389.889 696.033 388.928 674.984C388.524 666.171 392.922 657.61 391.001 648.746C387.395 632.113 390.445 615.193 388.49 598.628C387.462 589.831 388.237 580.832 386.434 572.389C383.148 557.071 385.103 541.786 384.648 526.518C384.193 510.963 384.294 495.375 384.682 479.821C384.816 474.344 386.485 468.918 387.361 463.98C379.963 454.189 370.661 450.869 359.589 450.768C354.449 450.717 349.343 449.15 344.186 448.796C339.147 448.442 333.822 447.751 329.036 448.897C315.605 452.15 302.09 450.549 288.608 450.819C275.211 451.088 261.813 450.886 248.416 450.886H243.967C242.838 449.116 241.759 447.414 240.698 445.729C246.411 443.96 251.517 442.275 256.69 440.825C258.679 440.269 260.802 440.05 262.875 440.05C296.192 440 329.491 439.882 362.808 440.151C368.992 440.202 375.143 441.904 382.693 443.05Z" fill="#E60012"/>
<path d="M245.292 568.176L275.244 669.839C275.34 673.103 275.436 676.415 275.532 679.775C275.724 683.135 275.868 686.495 275.964 689.855C276.252 696.575 276.396 703.151 276.396 709.583V713.903C276.396 719.375 276.012 724.271 275.244 728.591C274.572 732.911 272.844 736.367 270.06 738.959C267.276 741.455 262.764 742.703 256.524 742.703C250.284 742.703 245.724 741.455 242.844 738.959C239.964 736.367 238.14 732.911 237.372 728.591C236.7 724.271 236.364 719.375 236.364 713.903V693.743H178.764V713.903C178.764 719.375 178.38 724.271 177.612 728.591C176.94 732.911 175.164 736.367 172.284 738.959C169.5 741.455 164.94 742.703 158.604 742.703C152.268 742.703 147.708 741.455 144.924 738.959C142.14 736.367 140.412 732.911 139.74 728.591C139.068 724.271 138.732 719.375 138.732 713.903V709.583C138.732 706.223 138.78 702.095 138.876 697.199C138.972 692.303 139.068 687.359 139.164 682.367C139.356 677.375 139.5 673.199 139.596 669.839C141.996 661.487 144.444 653.088 146.94 644.64C149.436 636.096 152.028 627.552 154.716 619.008C157.404 610.464 159.996 601.968 162.492 593.52C164.988 585.072 167.436 576.624 169.836 568.176C172.044 560.208 175.164 553.728 179.196 548.736C183.324 543.648 190.38 541.104 200.364 541.104H214.764C225.036 541.104 232.092 543.648 235.932 548.736C239.772 553.728 242.892 560.208 245.292 568.176ZM209.292 578.544H206.124L184.812 655.728H230.604L209.292 578.544Z" fill="white"/>
</g>
<g clip-path="url(#clip2_508_3834)">
<path fill-rule="evenodd" clip-rule="evenodd" d="M440 58.6955C440.708 57.4821 444.23 46.0396 444.348 44.8599C445.055 37.9337 445.645 30.9738 446.555 24.0645C447.364 17.8967 456.886 8.76286 463.138 8.84712C476.653 8.99879 489.899 4.9206 503.465 6.55524C508.251 7.12821 513.104 5.54412 517.907 8.47638C520.283 9.92565 524.648 9.68972 527.462 8.57749C543.893 2.08945 560.981 4.88689 577.799 4.54985C582.248 4.46559 586.141 8.39212 591.398 4.70152C594.651 2.42649 600.482 6.04968 604.408 2.24112C604.594 2.05575 605.116 2.24112 605.47 2.20742C615.295 1.48278 625.119 0.404249 634.961 0.202025C639.696 0.100913 644.466 1.63445 650.077 2.56131C651.56 4.26337 653.583 6.5721 655.52 8.77971C654.644 9.8751 654.273 10.802 653.802 10.8525C608.604 15.352 563.256 11.9985 517.991 13.1612C511.402 13.3298 504.863 14.8296 498.274 15.1835C491.415 15.5374 484.523 14.9813 477.664 15.3857C474.361 15.5879 471.142 17.1046 465.885 18.5876C458.52 24.6206 455.234 34.597 452.723 45.652C449.572 59.5212 451.392 73.323 450.92 87.1417C450.482 99.7639 450.819 112.42 450.819 125.8C449.083 125.918 447.398 126.019 445.763 126.12C442.089 120.576 441.988 114.442 442.089 108.19C442.241 98.7865 442.157 89.383 442.089 79.9796C442.089 78.4123 442.932 76.1205 439.949 76.0868V58.7123L440 58.6955Z" fill="#E60012"/>
<path fill-rule="evenodd" clip-rule="evenodd" d="M497.432 369.765C495.932 370.607 493.994 372.141 491.786 372.832C489.494 373.54 486.444 374.45 484.641 373.506C479.821 371.012 475.406 367.692 471.008 364.456C465.851 360.648 463.963 354.783 464.081 348.969C464.301 339.364 460.104 330.213 461.722 320.557C457.593 310.968 460.441 300.874 459.498 291.066C459.11 286.988 457.829 283.011 457.459 278.932C457.105 274.989 456.97 270.928 457.459 267.001C458.385 259.603 458.992 252.003 464.435 246.037C467.25 242.953 466.441 239.954 464.722 236.398C461.604 229.943 458.84 223.321 459.397 215.737C459.582 213.209 457.678 210.597 457.459 207.952C456.902 201.312 457.526 194.807 460.846 188.774C462.464 185.842 463.761 182.724 465.43 179.168C464.014 174.129 458.621 169.748 459.582 163.243C460.492 157.042 457.138 150.385 461.604 144.537C461.958 144.082 461.705 143.139 461.705 142.431C461.705 129.404 463.492 116.057 461.233 103.435C458.672 89.0941 460.189 75.0058 459.683 60.8164C459.329 50.7557 463.846 41.5377 469.07 33.3644C471.766 29.1514 477.63 26.9438 483.209 26.0843C487.27 25.4608 491.281 24.3823 495.342 24.0115C499.285 23.6577 503.313 24.2138 507.273 23.843C510.998 23.506 515.109 23.3038 518.21 21.5511C522.625 19.057 527.041 19.63 531.54 19.6132C544.921 19.5289 558.318 19.3772 571.699 19.6469C583.428 19.8828 594.803 16.4281 606.633 17.237C618.16 18.0291 629.804 16.9 641.348 17.5404C654.796 18.2819 668.176 20.54 681.709 19.5289C684.742 19.3098 687.59 19.4278 690.842 17.9785C695.477 15.9057 701.982 16.1753 705.773 19.7648C712.127 25.7979 719.204 26.7921 727.041 25.9158C732.534 22.4443 737.994 19.0065 743.994 15.2148C748.696 15.2148 754.172 14.7766 759.548 15.3159C771.277 16.4618 783.023 17.7426 794.634 19.7311C799.943 20.6411 804.442 24.871 806.683 29.3368C809.97 35.8417 812.615 42.6836 813.947 50.267C816.576 65.2148 815.497 80.112 815.75 95.0092C816.003 110.21 815.649 125.41 815.885 140.611C815.969 145.768 814.199 151.295 817.957 156.014C818.126 156.233 818.092 156.772 817.957 157.075C814.84 164.153 816.811 171.77 815.615 178.949C813.256 193.223 812.834 193.964 815.767 207.581C815.986 208.626 815.901 209.755 815.767 210.816C814.166 225.124 818.21 239.111 818.008 253.351C817.789 267.456 817.974 281.578 817.957 295.683C817.957 306.283 814.233 316.647 815.783 327.348C812.042 334.342 813.879 341.925 813.677 349.239C813.306 362.518 806.077 370.405 793.05 371.551C788.618 371.939 784.253 373.27 779.821 373.573C775.659 373.86 771.547 373.557 767.637 375.714C766.255 376.489 764.081 375.832 762.278 375.832C752.875 375.832 743.455 375.596 734.051 375.882C707.88 376.64 681.877 372.023 655.706 373.624C649.791 373.995 643.994 373.792 638.079 375.612C632.551 377.331 626.046 374.096 620.586 378.022C611.503 376.927 602.454 378.932 593.101 376.405C585.012 374.231 575.726 374.82 567.25 376.084C553.043 378.208 544.129 378.359 529.889 376.084C524.462 375.225 518.851 375.141 513.458 373.691C508.605 372.377 503.684 371.265 497.398 369.731L497.432 369.765Z" fill="#E60012"/>
<path fill-rule="evenodd" clip-rule="evenodd" d="M822.693 3.04973C825.659 6.97625 829.72 11.7959 833.124 17.0369C836.427 22.1262 837.826 28.3615 839.225 33.9564C840.657 39.6692 839.832 46.3258 838.5 52.7969C836.714 61.3915 837.877 70.5927 837.776 79.5411C841.095 81.951 839.629 85.4899 839.646 88.5064C839.764 110.583 839.832 132.676 839.613 154.769C839.562 159.184 838.298 163.582 837.523 167.981C836.748 172.396 839.41 177.199 835.635 181.378C834.725 182.389 834.692 185.288 835.484 186.552C838.955 192.214 836.343 198.466 837.658 204.162C841.888 222.615 838.854 241.253 839.579 259.774C839.781 264.863 837.995 270.02 837.624 275.16C837.27 280.198 836.647 285.49 837.708 290.326C841.551 307.701 838.837 325.244 839.714 342.686C840.202 352.258 836.208 361.425 837.354 371.132C837.641 373.508 835.703 376.154 834.237 380.198C830.041 384.984 824.446 390.68 815.919 392.012C813.542 392.382 811.183 393.124 808.807 393.141C796.134 393.259 783.462 393.259 770.789 393.141C768.076 393.124 765.11 394.202 762.767 391.405C762.144 390.663 759.565 390.478 758.74 391.118C753.549 395.23 747.499 391.793 742.225 393.326C736.394 395.028 730.597 395.517 724.614 395.382C718.817 395.247 713.003 395.736 707.24 395.23C702.471 394.809 697.954 392.837 692.916 393.006C688.534 393.141 684.152 393.95 679.484 391.422C676.653 389.888 671.075 391.506 667.722 393.427C663.913 395.601 660.273 395.534 656.532 395.247C652.1 394.893 647.651 396.646 643.084 393.579C639.596 391.236 634.506 394.304 629.838 391.439C627.091 389.753 621.817 390.192 617.621 392.399C613.071 394.792 607.088 391.573 602.572 395.365C586.225 396.275 569.946 398.752 553.515 397.472C549.791 397.185 546.151 396.039 542.461 395.382C539.107 394.792 535.214 396.798 532.45 393.326C520.165 393.276 507.863 393.242 495.578 393.191C492.511 397.017 488.264 395.112 484.523 395.315C469.323 396.14 456.785 390.478 446.825 379.322V250.101C448.089 250.033 449.083 249.983 449.993 249.932C450.33 250.724 450.836 251.331 450.836 251.954C450.87 282.002 450.87 312.049 450.87 342.113C450.87 346.275 451.224 350.219 452.723 354.364C453.937 357.701 453.819 361.644 455.066 365.352C459.313 377.94 467.418 384.496 480.091 384.529C503.263 384.58 526.603 386.248 549.572 384.108C579.4 381.344 609.11 382.996 638.871 382.473C668.918 381.951 698.965 382.355 729.029 382.355H819.795C824.008 374.873 827.53 367.222 829.181 358.139C832.838 338.119 829.906 318.115 831.052 298.163C826.451 277.232 829.889 256.033 828.928 234.984C828.524 226.171 832.922 217.61 831.001 208.746C827.395 192.113 830.445 175.193 828.49 158.628C827.462 149.831 828.237 140.832 826.434 132.389C823.148 117.071 825.103 101.786 824.648 86.5179C824.193 70.9634 824.294 55.3753 824.682 39.8209C824.816 34.344 826.485 28.9176 827.361 23.98C819.963 14.1889 810.661 10.8691 799.589 10.768C794.449 10.7174 789.343 9.15017 784.186 8.79627C779.147 8.44238 773.822 7.75145 769.036 8.89739C755.605 12.1498 742.09 10.5489 728.608 10.8185C715.211 11.0882 701.813 10.8859 688.416 10.8859H683.967C682.838 9.11646 681.759 7.41441 680.698 5.7292C686.411 3.95974 691.517 2.27453 696.69 0.825259C698.679 0.269142 700.802 0.0500655 702.875 0.0500655C736.192 -0.000490569 769.491 -0.118455 802.808 0.151178C808.992 0.201734 815.143 1.90379 822.693 3.04973Z" fill="#E60012"/>
<path d="M705.452 143.44L662.252 220.047V270.159C662.252 276.015 661.772 281.439 660.812 286.431C659.852 291.327 657.836 295.263 654.764 298.239C651.788 301.215 647.084 302.703 640.652 302.703C634.22 302.703 629.42 301.215 626.252 298.239C623.18 295.263 621.164 291.327 620.204 286.431C619.244 281.439 618.764 276.015 618.764 270.159V220.047L575.852 143.44C573.548 139.408 571.34 135.472 569.228 131.632C567.116 127.696 566.06 123.76 566.06 119.824C566.06 117.232 566.78 114.64 568.22 112.048C569.756 109.36 572.492 106.864 576.428 104.56C580.748 102.256 584.78 101.104 588.524 101.104C594.188 101.104 598.892 103.456 602.636 108.16C606.476 112.768 609.644 117.808 612.14 123.28L638.348 178.288H642.956L669.164 123.28C671.66 117.808 674.78 112.768 678.524 108.16C682.364 103.456 687.116 101.104 692.78 101.104C696.428 101.104 700.46 102.256 704.876 104.56C708.62 106.864 711.26 109.36 712.796 112.048C714.428 114.64 715.244 117.232 715.244 119.824C715.244 121.648 714.476 124.432 712.94 128.176C712.172 130.096 711.164 132.352 709.916 134.944C708.668 137.536 707.18 140.368 705.452 143.44Z" fill="white"/>
</g>
<g clip-path="url(#clip3_508_3834)">
<path fill-rule="evenodd" clip-rule="evenodd" d="M440 496.695C440.708 495.482 444.23 484.04 444.348 482.86C445.055 475.934 445.645 468.974 446.555 462.065C447.364 455.897 456.886 446.763 463.138 446.847C476.653 446.999 489.899 442.921 503.465 444.555C508.251 445.128 513.104 443.544 517.907 446.476C520.283 447.926 524.648 447.69 527.462 446.577C543.893 440.089 560.981 442.887 577.799 442.55C582.248 442.466 586.141 446.392 591.398 442.702C594.651 440.426 600.482 444.05 604.408 440.241C604.594 440.056 605.116 440.241 605.47 440.207C615.295 439.483 625.119 438.404 634.961 438.202C639.696 438.101 644.466 439.634 650.077 440.561C651.56 442.263 653.583 444.572 655.52 446.78C654.644 447.875 654.273 448.802 653.802 448.853C608.604 453.352 563.256 449.998 517.991 451.161C511.402 451.33 504.863 452.83 498.274 453.183C491.415 453.537 484.523 452.981 477.664 453.386C474.361 453.588 471.142 455.105 465.885 456.588C458.52 462.621 455.234 472.597 452.723 483.652C449.572 497.521 451.392 511.323 450.92 525.142C450.482 537.764 450.819 550.42 450.819 563.8C449.083 563.918 447.398 564.019 445.763 564.12C442.089 558.576 441.988 552.442 442.089 546.19C442.241 536.786 442.157 527.383 442.089 517.98C442.089 516.412 442.932 514.12 439.949 514.087V496.712L440 496.695Z" fill="#E60012"/>
<path fill-rule="evenodd" clip-rule="evenodd" d="M497.432 807.765C495.932 808.607 493.994 810.141 491.786 810.832C489.494 811.54 486.444 812.45 484.641 811.506C479.821 809.012 475.406 805.692 471.008 802.456C465.851 798.648 463.963 792.783 464.081 786.969C464.301 777.364 460.104 768.213 461.722 758.557C457.593 748.968 460.441 738.874 459.498 729.066C459.11 724.988 457.829 721.011 457.459 716.932C457.105 712.989 456.97 708.928 457.459 705.001C458.385 697.603 458.992 690.003 464.435 684.037C467.25 680.953 466.441 677.954 464.722 674.398C461.604 667.943 458.84 661.321 459.397 653.737C459.582 651.209 457.678 648.597 457.459 645.952C456.902 639.312 457.526 632.807 460.846 626.774C462.464 623.842 463.761 620.724 465.43 617.168C464.014 612.129 458.621 607.748 459.582 601.243C460.492 595.042 457.138 588.385 461.604 582.537C461.958 582.082 461.705 581.139 461.705 580.431C461.705 567.404 463.492 554.057 461.233 541.435C458.672 527.094 460.189 513.006 459.683 498.816C459.329 488.756 463.846 479.538 469.07 471.364C471.766 467.151 477.63 464.944 483.209 464.084C487.27 463.461 491.281 462.382 495.342 462.012C499.285 461.658 503.313 462.214 507.273 461.843C510.998 461.506 515.109 461.304 518.21 459.551C522.625 457.057 527.041 457.63 531.54 457.613C544.921 457.529 558.318 457.377 571.699 457.647C583.428 457.883 594.803 454.428 606.633 455.237C618.16 456.029 629.804 454.9 641.348 455.54C654.796 456.282 668.176 458.54 681.709 457.529C684.742 457.31 687.59 457.428 690.842 455.979C695.477 453.906 701.982 454.175 705.773 457.765C712.127 463.798 719.204 464.792 727.041 463.916C732.534 460.444 737.994 457.006 743.994 453.215C748.696 453.215 754.172 452.777 759.548 453.316C771.277 454.462 783.023 455.743 794.634 457.731C799.943 458.641 804.442 462.871 806.683 467.337C809.97 473.842 812.615 480.684 813.947 488.267C816.576 503.215 815.497 518.112 815.75 533.009C816.003 548.21 815.649 563.41 815.885 578.611C815.969 583.768 814.199 589.295 817.957 594.014C818.126 594.233 818.092 594.772 817.957 595.075C814.84 602.153 816.811 609.77 815.615 616.949C813.256 631.223 812.834 631.964 815.767 645.581C815.986 646.626 815.901 647.755 815.767 648.816C814.166 663.124 818.21 677.111 818.008 691.351C817.789 705.456 817.974 719.578 817.957 733.683C817.957 744.283 814.233 754.647 815.783 765.348C812.042 772.342 813.879 779.925 813.677 787.239C813.306 800.518 806.077 808.405 793.05 809.551C788.618 809.939 784.253 811.27 779.821 811.573C775.659 811.86 771.547 811.557 767.637 813.714C766.255 814.489 764.081 813.832 762.278 813.832C752.875 813.832 743.455 813.596 734.051 813.882C707.88 814.64 681.877 810.023 655.706 811.624C649.791 811.995 643.994 811.792 638.079 813.612C632.551 815.331 626.046 812.096 620.586 816.022C611.503 814.927 602.454 816.932 593.101 814.405C585.012 812.231 575.726 812.82 567.25 814.084C553.043 816.208 544.129 816.359 529.889 814.084C524.462 813.225 518.851 813.141 513.458 811.691C508.605 810.377 503.684 809.265 497.398 807.731L497.432 807.765Z" fill="#E60012"/>
<path fill-rule="evenodd" clip-rule="evenodd" d="M822.693 441.05C825.659 444.976 829.72 449.796 833.124 455.037C836.427 460.126 837.826 466.361 839.225 471.956C840.657 477.669 839.832 484.326 838.5 490.797C836.714 499.391 837.877 508.593 837.776 517.541C841.095 519.951 839.629 523.49 839.646 526.506C839.764 548.583 839.832 570.676 839.613 592.769C839.562 597.184 838.298 601.582 837.523 605.981C836.748 610.396 839.41 615.199 835.635 619.378C834.725 620.389 834.692 623.288 835.484 624.552C838.955 630.214 836.343 636.466 837.658 642.162C841.888 660.615 838.854 679.253 839.579 697.774C839.781 702.863 837.995 708.02 837.624 713.16C837.27 718.198 836.647 723.49 837.708 728.326C841.551 745.701 838.837 763.244 839.714 780.686C840.202 790.258 836.208 799.425 837.354 809.132C837.641 811.508 835.703 814.154 834.237 818.198C830.041 822.984 824.446 828.68 815.919 830.012C813.542 830.382 811.183 831.124 808.807 831.141C796.134 831.259 783.462 831.259 770.789 831.141C768.076 831.124 765.11 832.202 762.767 829.405C762.144 828.663 759.565 828.478 758.74 829.118C753.549 833.23 747.499 829.793 742.225 831.326C736.394 833.028 730.597 833.517 724.614 833.382C718.817 833.247 713.003 833.736 707.24 833.23C702.471 832.809 697.954 830.837 692.916 831.006C688.534 831.141 684.152 831.95 679.484 829.422C676.653 827.888 671.075 829.506 667.722 831.427C663.913 833.601 660.273 833.534 656.532 833.247C652.1 832.893 647.651 834.646 643.084 831.579C639.596 829.236 634.506 832.304 629.838 829.439C627.091 827.753 621.817 828.192 617.621 830.399C613.071 832.792 607.088 829.573 602.572 833.365C586.225 834.275 569.946 836.752 553.515 835.472C549.791 835.185 546.151 834.039 542.461 833.382C539.107 832.792 535.214 834.798 532.45 831.326C520.165 831.276 507.863 831.242 495.578 831.191C492.511 835.017 488.264 833.112 484.523 833.315C469.323 834.14 456.785 828.478 446.825 817.322V688.101C448.089 688.033 449.083 687.983 449.993 687.932C450.33 688.724 450.836 689.331 450.836 689.954C450.87 720.002 450.87 750.049 450.87 780.113C450.87 784.275 451.224 788.219 452.723 792.364C453.937 795.701 453.819 799.644 455.066 803.352C459.313 815.94 467.418 822.496 480.091 822.529C503.263 822.58 526.603 824.248 549.572 822.108C579.4 819.344 609.11 820.996 638.871 820.473C668.918 819.951 698.965 820.355 729.029 820.355H819.795C824.008 812.873 827.53 805.222 829.181 796.139C832.838 776.119 829.906 756.115 831.052 736.163C826.451 715.232 829.889 694.033 828.928 672.984C828.524 664.171 832.922 655.61 831.001 646.746C827.395 630.113 830.445 613.193 828.49 596.628C827.462 587.831 828.237 578.832 826.434 570.389C823.148 555.071 825.103 539.786 824.648 524.518C824.193 508.963 824.294 493.375 824.682 477.821C824.816 472.344 826.485 466.918 827.361 461.98C819.963 452.189 810.661 448.869 799.589 448.768C794.449 448.717 789.343 447.15 784.186 446.796C779.147 446.442 773.822 445.751 769.036 446.897C755.605 450.15 742.09 448.549 728.608 448.819C715.211 449.088 701.813 448.886 688.416 448.886H683.967C682.838 447.116 681.759 445.414 680.698 443.729C686.411 441.96 691.517 440.275 696.69 438.825C698.679 438.269 700.802 438.05 702.875 438.05C736.192 438 769.491 437.882 802.808 438.151C808.992 438.202 815.143 439.904 822.693 441.05Z" fill="#E60012"/>
<path d="M609.26 539.104H651.02C669.164 539.104 683.9 543.472 695.228 552.208C700.892 556.624 705.308 562.096 708.476 568.624C711.644 575.152 713.228 582.784 713.228 591.52V680.799C713.228 688.287 712.412 694.863 710.78 700.527C709.148 706.191 707.036 711.135 704.444 715.359C701.756 719.487 698.732 723.039 695.372 726.015C692.012 728.991 688.604 731.391 685.148 733.215C677.084 737.631 667.724 740.127 657.068 740.703H609.26C602.348 740.703 597.356 739.263 594.284 736.383C591.212 733.503 589.292 729.567 588.524 724.575C587.756 719.583 587.372 713.919 587.372 707.583V571.936C587.372 565.696 587.756 560.128 588.524 555.232C589.292 550.24 591.212 546.304 594.284 543.424C597.356 540.544 602.348 539.104 609.26 539.104ZM649.868 572.8H631.148V706.431H649.868C653.804 706.335 657.5 705.375 660.956 703.551C664.22 701.919 666.86 699.471 668.876 696.207C670.988 692.847 672.044 688.575 672.044 683.391V598.432C672.044 592.768 670.988 588.064 668.876 584.32C666.86 580.576 664.22 577.792 660.956 575.968C657.692 574.144 653.996 573.088 649.868 572.8Z" fill="white"/>
</g>
<defs>
<clipPath id="clip0_508_3834">
<rect width="400" height="397.893" fill="white" transform="translate(0 2)"/>
</clipPath>
<clipPath id="clip1_508_3834">
<rect width="400" height="397.893" fill="white" transform="translate(0 440)"/>
</clipPath>
<clipPath id="clip2_508_3834">
<rect width="400" height="397.893" fill="white" transform="translate(440)"/>
</clipPath>
<clipPath id="clip3_508_3834">
<rect width="400" height="397.893" fill="white" transform="translate(440 438)"/>
</clipPath>
</defs>
</svg>
